<mxfile host="app.diagrams.net" modified="2023-02-07T08:23:48.888Z" agent="5.0 (Windows NT 10.0; Win64; x64) AppleWebKit/537.36 (KHTML, like Gecko) Chrome/109.0.0.0 Safari/537.36" etag="aLlsqO9jsTpiYrlnoc6Q" version="20.8.16" type="github">
  <diagram name="Page-1" id="70sGn6P5sg5wczugAP7z">
    <mxGraphModel dx="880" dy="484" grid="1" gridSize="10" guides="1" tooltips="1" connect="1" arrows="1" fold="1" page="1" pageScale="1" pageWidth="850" pageHeight="1100" math="0" shadow="0">
      <root>
        <mxCell id="0" />
        <mxCell id="1" parent="0" />
        <mxCell id="fmdPFYt4hmlJi035yw41-17" value="" style="edgeStyle=orthogonalEdgeStyle;rounded=0;orthogonalLoop=1;jettySize=auto;html=1;endArrow=none;endFill=0;" edge="1" parent="1" source="fmdPFYt4hmlJi035yw41-1" target="fmdPFYt4hmlJi035yw41-2">
          <mxGeometry relative="1" as="geometry" />
        </mxCell>
        <mxCell id="fmdPFYt4hmlJi035yw41-1" value="Clients" style="whiteSpace=wrap;html=1;align=center;" vertex="1" parent="1">
          <mxGeometry x="40" y="140" width="100" height="40" as="geometry" />
        </mxCell>
        <mxCell id="fmdPFYt4hmlJi035yw41-16" value="" style="edgeStyle=orthogonalEdgeStyle;rounded=0;orthogonalLoop=1;jettySize=auto;html=1;endArrow=none;endFill=0;" edge="1" parent="1" source="fmdPFYt4hmlJi035yw41-2" target="fmdPFYt4hmlJi035yw41-3">
          <mxGeometry relative="1" as="geometry" />
        </mxCell>
        <mxCell id="fmdPFYt4hmlJi035yw41-2" value="Place" style="shape=rhombus;perimeter=rhombusPerimeter;whiteSpace=wrap;html=1;align=center;" vertex="1" parent="1">
          <mxGeometry x="200" y="130" width="120" height="60" as="geometry" />
        </mxCell>
        <mxCell id="fmdPFYt4hmlJi035yw41-13" value="" style="edgeStyle=orthogonalEdgeStyle;rounded=0;orthogonalLoop=1;jettySize=auto;html=1;endArrow=none;endFill=0;" edge="1" parent="1" source="fmdPFYt4hmlJi035yw41-3" target="fmdPFYt4hmlJi035yw41-6">
          <mxGeometry relative="1" as="geometry" />
        </mxCell>
        <mxCell id="fmdPFYt4hmlJi035yw41-14" value="" style="edgeStyle=orthogonalEdgeStyle;rounded=0;orthogonalLoop=1;jettySize=auto;html=1;endArrow=none;endFill=0;" edge="1" parent="1" source="fmdPFYt4hmlJi035yw41-3" target="fmdPFYt4hmlJi035yw41-4">
          <mxGeometry relative="1" as="geometry" />
        </mxCell>
        <mxCell id="fmdPFYt4hmlJi035yw41-3" value="Orders" style="whiteSpace=wrap;html=1;align=center;" vertex="1" parent="1">
          <mxGeometry x="390" y="140" width="100" height="40" as="geometry" />
        </mxCell>
        <mxCell id="fmdPFYt4hmlJi035yw41-15" value="" style="edgeStyle=orthogonalEdgeStyle;rounded=0;orthogonalLoop=1;jettySize=auto;html=1;endArrow=none;endFill=0;" edge="1" parent="1" source="fmdPFYt4hmlJi035yw41-4" target="fmdPFYt4hmlJi035yw41-5">
          <mxGeometry relative="1" as="geometry" />
        </mxCell>
        <mxCell id="fmdPFYt4hmlJi035yw41-4" value="Contain" style="shape=rhombus;perimeter=rhombusPerimeter;whiteSpace=wrap;html=1;align=center;" vertex="1" parent="1">
          <mxGeometry x="540" y="130" width="120" height="60" as="geometry" />
        </mxCell>
        <mxCell id="fmdPFYt4hmlJi035yw41-5" value="Products" style="whiteSpace=wrap;html=1;align=center;" vertex="1" parent="1">
          <mxGeometry x="700" y="140" width="100" height="40" as="geometry" />
        </mxCell>
        <mxCell id="fmdPFYt4hmlJi035yw41-12" value="" style="edgeStyle=orthogonalEdgeStyle;rounded=0;orthogonalLoop=1;jettySize=auto;html=1;endArrow=none;endFill=0;" edge="1" parent="1" source="fmdPFYt4hmlJi035yw41-6" target="fmdPFYt4hmlJi035yw41-8">
          <mxGeometry relative="1" as="geometry" />
        </mxCell>
        <mxCell id="fmdPFYt4hmlJi035yw41-6" value="Deliverd" style="shape=rhombus;perimeter=rhombusPerimeter;whiteSpace=wrap;html=1;align=center;" vertex="1" parent="1">
          <mxGeometry x="380" y="230" width="120" height="60" as="geometry" />
        </mxCell>
        <mxCell id="fmdPFYt4hmlJi035yw41-8" value="Delivery" style="whiteSpace=wrap;html=1;align=center;" vertex="1" parent="1">
          <mxGeometry x="390" y="360" width="100" height="40" as="geometry" />
        </mxCell>
        <mxCell id="fmdPFYt4hmlJi035yw41-18" value="&lt;font style=&quot;font-size: 16px;&quot;&gt;&lt;b style=&quot;background-color: initial;&quot;&gt;&lt;span lang=&quot;EN-GB&quot;&gt;Task 1: Create a conceptual model for M&amp;amp;G&lt;/span&gt;&lt;/b&gt;&lt;br&gt;&lt;/font&gt;" style="text;html=1;strokeColor=none;fillColor=none;align=left;verticalAlign=middle;whiteSpace=wrap;rounded=0;" vertex="1" parent="1">
          <mxGeometry x="45" y="50" width="380" height="30" as="geometry" />
        </mxCell>
      </root>
    </mxGraphModel>
  </diagram>
</mxfile>
